<?xml version="1.0" encoding="UTF-8" standalone="no"?>
<svg
   width="173.41"
   height="39.152"
   viewBox="0 0 173.41 39.152"
   version="1.1"
   id="svg21"
   sodipodi:docname="gupshup-whatsapp.svg"
   xml:space="preserve"
   inkscape:version="1.2.1 (1:1.2.1+202210291244+9c6d41e410)"
   xmlns:inkscape="http://www.inkscape.org/namespaces/inkscape"
   xmlns:sodipodi="http://sodipodi.sourceforge.net/DTD/sodipodi-0.dtd"
   xmlns="http://www.w3.org/2000/svg"
   xmlns:svg="http://www.w3.org/2000/svg"><defs
     id="defs25"><linearGradient
       id="b"
       x1="85.915"
       x2="86.535"
       y1="32.567"
       y2="137.092"
       gradientUnits="userSpaceOnUse"><stop
         offset="0"
         stop-color="#57d163"
         id="stop1281" /><stop
         offset="1"
         stop-color="#23b33a"
         id="stop1283" /></linearGradient><filter
       id="a"
       width="1.1146948"
       height="1.1141825"
       x="-0.057347414"
       y="-0.05709127"
       color-interpolation-filters="sRGB"><feGaussianBlur
         stdDeviation="3.531"
         id="feGaussianBlur1286" /></filter></defs><sodipodi:namedview
     id="namedview23"
     pagecolor="#ffffff"
     bordercolor="#999999"
     borderopacity="1"
     inkscape:showpageshadow="0"
     inkscape:pageopacity="0"
     inkscape:pagecheckerboard="0"
     inkscape:deskcolor="#d1d1d1"
     showgrid="false"
     inkscape:zoom="3.7771754"
     inkscape:cx="116.62154"
     inkscape:cy="15.752512"
     inkscape:window-width="1848"
     inkscape:window-height="1016"
     inkscape:window-x="72"
     inkscape:window-y="27"
     inkscape:window-maximized="1"
     inkscape:current-layer="logo" /><g
     id="logo"
     transform="translate(-40.411 -59.648)"><g
       id="Group_54"
       data-name="Group 54"
       transform="matrix(0.25454254,0,0,0.24498049,84.616624,55.894284)"><g
         id="g1315"
         transform="translate(39.132827,7.7879146)"><path
           fill="#b3b3b3"
           d="m 54.532,138.45 2.235,1.324 c 9.387,5.571 20.15,8.518 31.126,8.523 h 0.023 c 33.707,0 61.139,-27.426 61.153,-61.135 0.006,-16.335 -6.349,-31.696 -17.895,-43.251 A 60.75,60.75 0 0 0 87.94,25.983 c -33.733,0 -61.166,27.423 -61.178,61.13 a 60.98,60.98 0 0 0 9.349,32.535 l 1.455,2.312 -6.179,22.558 z M 13.721,161.994 24.16,123.88 c -6.438,-11.154 -9.825,-23.808 -9.821,-36.772 0.017,-40.556 33.021,-73.55 73.578,-73.55 19.681,0.01 38.154,7.669 52.047,21.572 13.893,13.903 21.537,32.383 21.53,52.037 -0.018,40.553 -33.027,73.553 -73.578,73.553 h -0.032 c -12.313,-0.005 -24.412,-3.094 -35.159,-8.954 z m 0,0"
           filter="url(#a)"
           id="path1291" /><path
           fill="#ffffff"
           d="M 12.966,161.238 23.405,123.124 A 73.42,73.42 0 0 1 13.584,86.352 c 0.017,-40.556 33.021,-73.55 73.578,-73.55 19.681,0.01 38.154,7.669 52.047,21.572 13.893,13.903 21.537,32.383 21.53,52.037 -0.018,40.553 -33.027,73.553 -73.578,73.553 H 87.129 C 74.816,159.959 62.717,156.87 51.97,151.01 Z"
           id="path1293" /><path
           fill="url(#linearGradient1780)"
           d="m 87.184,25.227 c -33.733,0 -61.166,27.423 -61.178,61.13 a 60.98,60.98 0 0 0 9.349,32.535 l 1.455,2.312 -6.179,22.559 23.146,-6.069 2.235,1.324 c 9.387,5.571 20.15,8.518 31.126,8.524 h 0.023 c 33.707,0 61.14,-27.426 61.153,-61.135 A 60.75,60.75 0 0 0 130.419,43.156 60.75,60.75 0 0 0 87.184,25.227 Z"
           id="path1295" /><path
           fill="url(#b)"
           d="m 87.184,25.227 c -33.733,0 -61.166,27.423 -61.178,61.13 a 60.98,60.98 0 0 0 9.349,32.535 l 1.455,2.313 -6.179,22.558 23.146,-6.069 2.235,1.324 c 9.387,5.571 20.15,8.517 31.126,8.523 h 0.023 c 33.707,0 61.14,-27.426 61.153,-61.135 A 60.75,60.75 0 0 0 130.419,43.155 60.75,60.75 0 0 0 87.184,25.227 Z"
           id="path1297"
           style="fill:url(#b)" /><path
           fill="#ffffff"
           fill-rule="evenodd"
           d="M 68.772,55.603 C 67.394,52.542 65.944,52.48 64.635,52.427 l -3.524,-0.043 c -1.226,0 -3.218,0.46 -4.902,2.3 -1.684,1.84 -6.435,6.287 -6.435,15.332 0,9.045 6.588,17.785 7.506,19.013 0.918,1.228 12.718,20.381 31.405,27.75 15.529,6.124 18.689,4.906 22.061,4.6 3.372,-0.306 10.877,-4.447 12.408,-8.74 1.531,-4.293 1.532,-7.971 1.073,-8.74 -0.459,-0.769 -1.685,-1.226 -3.525,-2.146 -1.84,-0.92 -10.877,-5.367 -12.562,-5.981 -1.685,-0.614 -2.91,-0.919 -4.137,0.921 -1.227,1.84 -4.746,5.979 -5.819,7.206 -1.073,1.227 -2.144,1.381 -3.984,0.462 -1.84,-0.919 -7.76,-2.861 -14.784,-9.124 -5.465,-4.873 -9.154,-10.891 -10.228,-12.73 -1.074,-1.839 -0.114,-2.835 0.808,-3.751 0.825,-0.824 1.838,-2.147 2.759,-3.22 0.921,-1.073 1.224,-1.84 1.836,-3.065 0.612,-1.225 0.307,-2.301 -0.153,-3.22 -0.46,-0.919 -4.032,-10.011 -5.666,-13.647"
           id="path1299" /></g></g><path
       id="Path_81"
       data-name="Path 81"
       d="M72.2 80.895a3.3 3.3 0 0 1-1.009 2 3.511 3.511 0 0 1-2.058 1.034 123.3 123.3 0 0 1-9.914.525 4.96 4.96 0 0 0-3.456 1.458l-4.346 4.347v-3.434a2.7 2.7 0 0 0-2.5-2.687c-.851-.061-1.709-.133-2.557-.212a3.511 3.511 0 0 1-2.058-1.034A3.285 3.285 0 0 1 43.3 80.9a97.867 97.867 0 0 1 0-15.083 3.284 3.284 0 0 1 1.006-2 3.513 3.513 0 0 1 2.058-1.035 121.8 121.8 0 0 1 22.77 0 3.513 3.513 0 0 1 2.058 1.035 3.3 3.3 0 0 1 1.009 2 98.627 98.627 0 0 1-.001 15.078z"
       fill="#5e34f1"
       stroke="#5e34f1"
       stroke-width="1" /><path
       id="Path_82"
       data-name="Path 82"
       d="M73.25 98.8a1.823 1.823 0 0 1-1.291-.537L66.3 92.607a2.363 2.363 0 0 0-1.652-.7c-1.971-.024-2.884-.049-4.407-.15a1.3 1.3 0 0 1 .172-2.592c1.463.1 2.349.122 4.266.145a4.95 4.95 0 0 1 3.457 1.458l4.345 4.345v-3.426A2.7 2.7 0 0 1 74.98 89c.851-.062 1.711-.133 2.557-.212a3.523 3.523 0 0 0 2.063-1.035 3.294 3.294 0 0 0 1.007-2 97.867 97.867 0 0 0 0-15.083 3.652 3.652 0 0 0-2.531-2.923 1.3 1.3 0 0 1 .747-2.488 6.234 6.234 0 0 1 4.373 5.206 100.654 100.654 0 0 1 0 15.492 6.2 6.2 0 0 1-5.4 5.415h-.009c-.865.08-1.745.153-2.615.216a.1.1 0 0 0-.086.1v5.282a1.831 1.831 0 0 1-1.836 1.83zm4.412-8.718z"
       fill="#ff3964" /><path
       id="Path_83"
       data-name="Path 83"
       d="M74.788 65.611a6.2 6.2 0 0 0-5.4-5.413h-.011a124.2 124.2 0 0 0-23.258 0h-.011a6.2 6.2 0 0 0-5.4 5.417 100.4 100.4 0 0 0 0 15.492 6.2 6.2 0 0 0 5.4 5.41h.011c.865.082 1.745.154 2.615.215a.1.1 0 0 1 .086.1v5.284a1.821 1.821 0 0 0 1.129 1.684 1.853 1.853 0 0 0 .7.14 1.821 1.821 0 0 0 1.289-.535l5.662-5.66a2.359 2.359 0 0 1 1.652-.7c3.337-.04 6.746-.219 10.126-.535h.011a6.2 6.2 0 0 0 5.4-5.413 100.615 100.615 0 0 0-.001-15.486zM72.2 80.895a3.3 3.3 0 0 1-1.009 2 3.511 3.511 0 0 1-2.058 1.034 123.3 123.3 0 0 1-9.914.525 4.96 4.96 0 0 0-3.456 1.458l-4.346 4.347v-3.434a2.7 2.7 0 0 0-2.5-2.687c-.851-.061-1.709-.133-2.557-.212a3.511 3.511 0 0 1-2.058-1.034A3.285 3.285 0 0 1 43.3 80.9a97.867 97.867 0 0 1 0-15.083 3.284 3.284 0 0 1 1.006-2 3.513 3.513 0 0 1 2.058-1.035 121.8 121.8 0 0 1 22.77 0 3.513 3.513 0 0 1 2.058 1.035 3.3 3.3 0 0 1 1.009 2 98.627 98.627 0 0 1-.001 15.078z"
       fill="#5e34f1" /><path
       id="Path_86"
       data-name="Path 86"
       d="M53 78.642a1.138 1.138 0 0 1-.645-.2l-4.914-3.361a1.145 1.145 0 0 1 0-1.889l4.914-3.362a1.144 1.144 0 0 1 1.292 1.889l-3.533 2.417 3.533 2.417A1.145 1.145 0 0 1 53 78.642z"
       fill="#fff" /><g
       id="Group_55"
       data-name="Group 55"><path
         id="Path_84"
         data-name="Path 84"
         d="M79.6 87.753a3.294 3.294 0 0 0 1.007-2 97.867 97.867 0 0 0 0-15.083 3.652 3.652 0 0 0-2.531-2.923 1.288 1.288 0 0 1-.631-.421 116.43 116.43 0 0 1-.022 17.45 3.9 3.9 0 0 1-1.19 2.354 4.143 4.143 0 0 1-2.426 1.22c-3.9.364-7.833.571-11.686.618a5.9 5.9 0 0 0-1.473.213c1.331.085 2.222.108 4.038.13a4.95 4.95 0 0 1 3.457 1.458l4.345 4.345v-3.427A2.7 2.7 0 0 1 74.98 89c.851-.062 1.711-.133 2.557-.212a3.523 3.523 0 0 0 2.063-1.035z"
         fill="#ff3964" /></g><g
       id="Group_56"
       data-name="Group 56"><path
         id="Path_85"
         data-name="Path 85"
         d="M62.5 78.642a1.145 1.145 0 0 1-.647-2.089l3.533-2.417-3.533-2.417a1.144 1.144 0 0 1 1.292-1.889l4.914 3.362a1.145 1.145 0 0 1 0 1.889l-4.914 3.361a1.14 1.14 0 0 1-.645.2z"
         fill="#fff" /></g><g
       id="Group_58"
       data-name="Group 58"><path
         id="Path_87"
         data-name="Path 87"
         d="M56.075 82a1.144 1.144 0 0 1-1.111-1.422l3.362-13.447a1.144 1.144 0 0 1 2.22.555l-3.361 13.45a1.145 1.145 0 0 1-1.11.864z"
         fill="#fff" /></g><rect
       style="fill:#000000;stroke:#000000;stroke-width:2.13;stop-color:#000000"
       id="rect1732"
       width="7.2950149"
       height="0.21093479"
       x="86.651497"
       y="78.075531" /></g></svg>
